<svg width="24" height="24" viewBox="0 0 24 24" fill="none" xmlns="http://www.w3.org/2000/svg">
<path d="M17.6143 15.5132C19.0668 13.5312 19.7173 11.074 19.4358 8.63294C19.1543 6.19193 17.9615 3.94723 16.096 2.34791C14.2305 0.748602 11.83 -0.0873736 9.3746 0.00723612C6.91923 0.101846 4.59012 1.12006 2.85325 2.85818C1.11637 4.5963 0.0998225 6.92613 0.0069698 9.38157C-0.0858829 11.837 0.75181 14.237 2.35246 16.1013C3.9531 17.9656 6.19866 19.1568 8.63987 19.4366C11.0811 19.7164 13.5379 19.0641 15.5188 17.6102H15.5173C15.5623 17.6702 15.6103 17.7272 15.6643 17.7827L21.4393 23.5577C21.7206 23.8392 22.1022 23.9974 22.5001 23.9975C22.898 23.9977 23.2796 23.8397 23.5611 23.5585C23.8425 23.2772 24.0008 22.8956 24.0009 22.4977C24.001 22.0998 23.8431 21.7182 23.5618 21.4367L17.7868 15.6617C17.7332 15.6074 17.6755 15.5573 17.6143 15.5117V15.5132ZM18.0013 9.74722C18.0013 10.8306 17.7879 11.9034 17.3733 12.9044C16.9587 13.9053 16.3511 14.8148 15.585 15.5808C14.8189 16.3469 13.9094 16.9546 12.9085 17.3692C11.9075 17.7838 10.8347 17.9972 9.75134 17.9972C8.66794 17.9972 7.59514 17.7838 6.59421 17.3692C5.59327 16.9546 4.6838 16.3469 3.91771 15.5808C3.15163 14.8148 2.54394 13.9053 2.12934 12.9044C1.71474 11.9034 1.50135 10.8306 1.50135 9.74722C1.50135 7.55918 2.37054 5.46076 3.91771 3.91359C5.46489 2.36641 7.56331 1.49722 9.75134 1.49722C11.9394 1.49722 14.0378 2.36641 15.585 3.91359C17.1321 5.46076 18.0013 7.55918 18.0013 9.74722Z" fill="black"/>
</svg>
